# Blender v2.76 (sub 0) OBJ File: 'GameBlock.blend'
# www.blender.org
v 0.141250 -0.018750 0.141250
v -0.141250 -0.018750 0.141250
v -0.141250 -0.018750 -0.141250
v 0.141250 -0.018750 -0.141250
v 0.132775 0.001250 -0.132775
v 0.132775 0.001250 0.132775
v -0.132775 0.001250 -0.132775
v -0.132775 0.001250 0.132775
v -0.104892 0.011250 0.104892
v -0.104892 0.011250 -0.104892
v -0.096920 0.006250 0.096920
v -0.096920 0.006250 -0.096920
v 0.104892 0.011250 0.104892
v 0.096920 0.006250 0.096920
v 0.104892 0.011250 -0.104892
v 0.096920 0.006250 -0.096920
vt 0.000100 0.999900
vt 0.000100 0.000100
vt 0.999900 0.000100
vt 0.999900 0.999900
vt 0.999396 0.000702
vt 0.999396 0.001003
vt 0.999095 0.001003
vt 0.999609 0.001026
vt 0.999585 0.000734
vt 0.999311 0.001090
vt 0.999594 0.001090
vt 0.999460 0.000985
vt 0.999471 0.000710
vt 0.999481 0.000925
vt 0.999517 0.001134
vt 0.999302 0.001003
vt 0.999095 0.000702
vn 0.000000 1.000000 0.000000
vn 0.000000 -1.000000 -0.000000
vn 0.920700 0.390200 0.000000
vn 0.000000 0.390200 -0.920700
vn -0.920700 0.390200 0.000000
vn -0.337600 0.941300 0.000000
vn 0.531300 0.847200 0.000000
vn 0.000000 0.847200 -0.531300
vn 0.000000 0.941300 0.337600
vn 0.337600 0.941300 0.000000
vn 0.000000 0.941300 -0.337600
vn 0.000000 0.847200 0.531300
vn -0.531300 0.847200 0.000000
vn 0.000000 0.390200 0.920700
s 1
f 12/1/1 11/2/1 14/3/1
f 16/4/1 12/1/1 14/3/1
f 4/5/2 1/6/2 2/7/2
f 6/8/3 1/8/3 4/9/3
f 7/10/4 5/11/4 4/11/4
f 8/8/5 7/9/5 3/9/5
f 8/12/6 9/6/6 10/5/6
f 12/13/7 10/13/7 9/14/7
f 14/15/8 11/10/8 9/10/8
f 8/16/9 6/8/9 13/8/9
f 15/5/10 13/6/10 6/6/10
f 7/10/11 10/16/11 15/8/11
f 15/15/12 10/10/12 12/10/12
f 14/14/13 13/14/13 15/13/13
f 2/10/14 1/11/14 6/11/14
f 3/17/2 4/5/2 2/7/2
f 5/9/3 6/8/3 4/9/3
f 3/10/4 7/10/4 4/11/4
f 2/8/5 8/8/5 3/9/5
f 7/13/6 8/12/6 10/5/6
f 11/14/7 12/13/7 9/14/7
f 13/15/8 14/15/8 9/10/8
f 9/16/9 8/16/9 13/8/9
f 5/5/10 15/5/10 6/6/10
f 5/11/11 7/10/11 15/8/11
f 16/15/12 15/15/12 12/10/12
f 16/13/13 14/14/13 15/13/13
f 8/10/14 2/10/14 6/11/14
