# Blender v2.76 (sub 0) OBJ File: ''
# www.blender.org
v 0.141250 -0.018750 -0.141250
v 0.141250 -0.018750 0.141250
v -0.141250 -0.018750 0.141250
v -0.141250 -0.018750 -0.141250
v 0.132775 0.001250 -0.132775
v 0.132775 0.001250 0.132775
v -0.132775 0.001250 -0.132775
v -0.132775 0.001250 0.132775
v -0.104892 0.011250 0.104892
v -0.104892 0.011250 -0.104892
v -0.096920 0.006250 0.096920
v -0.096920 0.006250 -0.096920
v 0.104892 0.011250 0.104892
v 0.096920 0.006250 0.096920
v 0.104892 0.011250 -0.104892
v 0.096920 0.006250 -0.096920
vt -23.463800 -23.286400
vt 21.024401 -23.286400
vt 21.024401 21.201799
vt -23.463800 21.201799
vt 21.201799 -9.154770
vt 19.867201 -5.734050
vt -21.951700 -5.734050
vt -23.286400 -9.154770
vt 19.689699 -4.851500
vt -22.129200 -4.851500
vt -23.463800 -8.272220
vt 21.024401 -8.272220
vt 21.951700 -4.782270
vt -19.867201 -4.782270
vt -21.201799 -8.202990
vt 23.286400 -8.202990
vt 17.560801 -12.805700
vt -15.476200 -12.805700
vt -19.867201 -17.470501
vt 21.951700 -17.470501
vt -16.305300 13.988800
vt 14.220800 13.988800
vt 15.476200 15.470700
vt -17.560801 15.470700
vt 15.298800 17.386999
vt -17.738199 17.386999
vt -16.482800 15.905100
vt 14.043400 15.905100
vt 17.738199 -14.934900
vt -15.298800 -14.934900
vt -19.689699 -19.599701
vt 22.129200 -19.599701
vt 19.867201 -19.766800
vt 15.476200 -15.101900
vt -17.560801 -15.101900
vt -21.951700 -19.766800
vt 15.298800 -12.972700
vt -17.738199 -12.972700
vt -22.129200 -17.637600
vt 19.689699 -17.637600
vt -15.298800 15.621000
vt -14.043400 14.139100
vt 16.482800 14.139100
vt 17.738199 15.621000
vt 16.482800 14.220800
vt -14.043400 14.220800
vt -14.043400 -16.305300
vt 16.482800 -16.305300
vt 17.560801 17.537300
vt -15.476200 17.537300
vt -14.220800 16.055401
vt 16.305300 16.055401
vt 22.129200 -5.664830
vt -19.689699 -5.664830
vt -21.024401 -9.085540
vt 23.463800 -9.085540
vn 0.000000 -1.000000 -0.000000
vn 0.920700 0.390200 0.000000
vn 0.000000 0.390200 -0.920700
vn -0.920700 0.390200 0.000000
vn -0.337600 0.941300 0.000000
vn 0.531300 0.847200 0.000000
vn 0.000000 0.847200 -0.531300
vn 0.000000 0.941300 0.337600
vn 0.337600 0.941300 0.000000
vn 0.000000 0.941300 -0.337600
vn 0.000000 0.847200 0.531300
vn 0.000000 1.000000 0.000000
vn -0.531300 0.847200 0.000000
vn 0.000000 0.390200 0.920700
s 1
f 2/1/1 3/2/1 4/3/1
f 1/4/1 2/1/1 4/3/1
s 2
f 1/5/2 5/6/2 6/7/2
f 2/8/2 1/5/2 6/7/2
s 3
f 7/9/3 5/10/3 1/11/3
f 4/12/3 7/9/3 1/11/3
s 4
f 8/13/4 7/14/4 4/15/4
f 3/16/4 8/13/4 4/15/4
s 5
f 9/17/5 10/18/5 7/19/5
f 8/20/5 9/17/5 7/19/5
s 6
f 11/21/6 12/22/6 10/23/6
f 9/24/6 11/21/6 10/23/6
s 7
f 9/25/7 13/26/7 14/27/7
f 11/28/7 9/25/7 14/27/7
s 8
f 13/29/8 9/30/8 8/31/8
f 6/32/8 13/29/8 8/31/8
s 9
f 5/33/9 15/34/9 13/35/9
f 6/36/9 5/33/9 13/35/9
s 10
f 10/37/10 15/38/10 5/39/10
f 7/40/10 10/37/10 5/39/10
s 11
f 10/41/11 12/42/11 16/43/11
f 15/44/11 10/41/11 16/43/11
s 12
f 16/45/12 12/46/12 11/47/12
f 14/48/12 16/45/12 11/47/12
s 13
f 13/49/13 15/50/13 16/51/13
f 14/52/13 13/49/13 16/51/13
s 14
f 6/53/14 8/54/14 3/55/14
f 2/56/14 6/53/14 3/55/14
