# Blender v2.76 (sub 0) OBJ File: ''
# www.blender.org
o Mesh1_Model
v 0.565000 -0.075000 -0.565000
v 0.565000 -0.075000 0.565000
v -0.565000 -0.075000 0.565000
v -0.565000 -0.075000 -0.565000
v 0.531100 0.005000 -0.531100
v 0.531100 0.005000 0.531100
v -0.531100 0.005000 -0.531100
v -0.531100 0.005000 0.531100
v -0.419569 0.045000 0.419569
v -0.419569 0.045000 -0.419569
v -0.387682 0.025000 0.387682
v -0.387682 0.025000 -0.387682
v 0.419569 0.045000 0.419569
v 0.387681 0.025000 0.387682
v 0.419569 0.045000 -0.419569
v 0.387681 0.025000 -0.387682
vt -23.463800 21.201799
vt -23.463800 -23.286400
vt 21.024401 -23.286400
vt 21.024401 21.201799
vt -23.286400 -9.154770
vt 21.201799 -9.154770
vt 19.867201 -5.734050
vt -21.951700 -5.734050
vt 21.024401 -8.272220
vt 19.689699 -4.851500
vt -22.129200 -4.851500
vt -23.463800 -8.272220
vt 21.951700 -4.782270
vt -19.867201 -4.782270
vt -21.201799 -8.202990
vt 23.286400 -8.202990
vt 17.560801 -12.805700
vt -15.476200 -12.805700
vt -19.867201 -17.470501
vt 21.951700 -17.470501
vt -17.560801 15.470700
vt -16.305300 13.988800
vt 14.220800 13.988800
vt 15.476200 15.470700
vt 15.298800 17.386999
vt -17.738199 17.386999
vt -16.482800 15.905100
vt 14.043400 15.905100
vt 22.129200 -19.599701
vt 17.738199 -14.934900
vt -15.298800 -14.934900
vt -19.689699 -19.599701
vt -21.951700 -19.766800
vt 19.867201 -19.766800
vt 15.476200 -15.101900
vt -17.560801 -15.101900
vt 19.689699 -17.637600
vt 15.298800 -12.972700
vt -17.738199 -12.972700
vt -22.129200 -17.637600
vt -15.298800 15.621000
vt -14.043400 14.139100
vt 16.482800 14.139100
vt 17.738199 15.621000
vt 16.482800 -16.305300
vt 16.482800 14.220800
vt -14.043400 14.220800
vt -14.043400 -16.305300
vt 16.305300 16.055401
vt 17.560801 17.537300
vt -15.476200 17.537300
vt -14.220800 16.055401
vt 23.463800 -9.085540
vt 22.129200 -5.664830
vt -19.689699 -5.664830
vt -21.024401 -9.085540
vn 0.000000 -1.000000 -0.000000
vn 0.920700 0.390200 0.000000
vn 0.000000 0.390200 -0.920700
vn -0.920700 0.390200 0.000000
vn -0.337600 0.941300 0.000000
vn 0.531300 0.847200 0.000000
vn 0.000000 0.847200 -0.531300
vn 0.000000 0.941300 0.337600
vn 0.337600 0.941300 0.000000
vn 0.000000 0.941300 -0.337600
vn 0.000000 0.847200 0.531300
vn 0.000000 1.000000 0.000000
vn -0.531300 0.847200 0.000000
vn 0.000000 0.390200 0.920700
s 1
f 1/1/1 2/2/1 3/3/1 4/4/1
f 2/5/2 1/6/2 5/7/2 6/8/2
f 4/9/3 7/10/3 5/11/3 1/12/3
f 8/13/4 7/14/4 4/15/4 3/16/4
f 9/17/5 10/18/5 7/19/5 8/20/5
f 9/21/6 11/22/6 12/23/6 10/24/6
f 9/25/7 13/26/7 14/27/7 11/28/7
f 6/29/8 13/30/8 9/31/8 8/32/8
f 6/33/9 5/34/9 15/35/9 13/36/9
f 7/37/10 10/38/10 15/39/10 5/40/10
f 10/41/11 12/42/11 16/43/11 15/44/11
f 14/45/12 16/46/12 12/47/12 11/48/12
f 14/49/13 13/50/13 15/51/13 16/52/13
f 2/53/14 6/54/14 8/55/14 3/56/14
